<svg width="36" height="36" viewBox="0 0 36 36" fill="none" xmlns="http://www.w3.org/2000/svg">
<circle opacity="0.1" cx="18" cy="18" r="18" fill="#ABB8CB"/>
<path fill-rule="evenodd" clip-rule="evenodd" d="M13.572 25.051L8.85702 23.703C8.68848 23.6544 8.5723 23.5004 8.57202 23.325V11.534C8.57207 11.4108 8.62981 11.2949 8.72802 11.2206C8.82623 11.1464 8.95356 11.1224 9.07202 11.156L13.789 12.503C13.9568 12.5522 14.072 12.7061 14.072 12.881V24.673C14.0716 24.7959 14.0137 24.9116 13.9156 24.9858C13.8175 25.0599 13.6905 25.084 13.572 25.051ZM14.861 24.673C14.8619 24.7961 14.9195 24.9119 15.017 24.987H15.016C15.115 25.0603 15.2423 25.0839 15.361 25.051L19.287 23.928C19.4556 23.8794 19.5717 23.7254 19.572 23.55V11.758C19.572 11.6348 19.5142 11.5189 19.416 11.4446C19.3178 11.3704 19.1905 11.3464 19.072 11.38L15.146 12.503C14.9775 12.5515 14.8613 12.7056 14.861 12.881V24.673ZM23.981 26.709C23.691 26.33 21.149 22.962 21.149 21.361C21.149 19.6243 22.5569 18.2165 24.2935 18.2165C26.0302 18.2165 27.438 19.6243 27.438 21.361C27.438 22.971 24.895 26.331 24.605 26.709C24.5307 26.8061 24.4153 26.863 24.293 26.863C24.1707 26.863 24.0554 26.8061 23.981 26.709ZM23.507 21.361C23.507 21.7951 23.8589 22.147 24.293 22.147C24.7271 22.147 25.079 21.7951 25.079 21.361C25.079 20.9269 24.7271 20.575 24.293 20.575C23.8599 20.5761 23.5091 20.9269 23.508 21.36L23.507 21.361ZM20.361 18.882C20.3605 19.0534 20.4715 19.2053 20.635 19.257H20.637C20.6745 19.269 20.7136 19.2754 20.753 19.276C20.8812 19.2763 21.0014 19.2139 21.075 19.109C22.0339 17.7395 23.7548 17.1275 25.363 17.584C25.4815 17.617 25.6085 17.5929 25.7066 17.5188C25.8047 17.4446 25.8626 17.3289 25.863 17.206V13.106C25.8627 12.9306 25.7466 12.7765 25.578 12.728L20.861 11.38C20.7425 11.346 20.615 11.3698 20.5166 11.4441C20.4183 11.5184 20.3607 11.6347 20.361 11.758V18.882Z" fill="#ABB8CB"/>
</svg>
